<?xml version="1.0" encoding="iso-8859-1"?>
<!-- Uploaded to: SVG Repo, www.svgrepo.com, Generator: SVG Repo Mixer Tools -->
<svg height="800px" width="800px" version="1.1" id="Layer_1" xmlns="http://www.w3.org/2000/svg" xmlns:xlink="http://www.w3.org/1999/xlink" 
	 viewBox="0 0 512 512" xml:space="preserve">
<polygon style="fill:#E6E6E6;" points="183.156,286.044 237.727,211.191 168.077,143.637 10.2,158.209 31.192,385.631 
	195.037,370.508 234.85,304.198 "/>
<polygon style="fill:#947C7C;" points="215.673,189.802 14.827,208.34 19.341,257.248 217.484,238.959 237.727,211.191 "/>
<polygon style="fill:#E6E6E6;" points="501.8,157.03 276.869,126.371 329.488,207.895 259.44,268.511 305.707,297.856 
	251.964,353.477 470.955,383.326 "/>
<polygon style="fill:#947C7C;" points="495.001,206.913 312.827,182.081 329.488,207.895 303.504,230.381 488.368,255.578 "/>
<g>
	<path style="fill:#4C1D1D;" d="M245.969,217.2c2.994-4.106,2.507-9.791-1.14-13.329l-69.65-67.553
		c-2.137-2.074-5.07-3.113-8.038-2.835L9.262,148.052c-2.694,0.249-5.178,1.557-6.907,3.637c-1.729,2.081-2.561,4.763-2.312,7.457
		l20.992,227.421c0.249,2.694,1.556,5.178,3.637,6.907c1.839,1.528,4.147,2.355,6.518,2.355c0.312,0,0.625-0.014,0.937-0.043
		l163.847-15.123c3.235-0.299,6.135-2.12,7.806-4.907l39.811-66.31c1.578-2.628,1.891-5.827,0.85-8.711
		c-1.04-2.883-3.322-5.147-6.214-6.162l-38.749-13.608L245.969,217.2z M25.921,217.559l186.019-17.169l12.326,11.954l-12.308,16.884
		L28.56,246.154L25.921,217.559z M164.344,154.225l28.311,27.458l-168.61,15.564l-2.753-29.818L164.344,154.225z M188.955,360.826
		L40.41,374.537l-9.975-108.071l165.511-15.277l-21.031,28.846c-1.9,2.606-2.455,5.957-1.497,9.036
		c0.958,3.081,3.316,5.526,6.359,6.595l39.887,14.007L188.955,360.826z"/>
	<path style="fill:#4C1D1D;" d="M511.906,158.407c0.761-5.582-3.146-10.722-8.728-11.483l-224.931-30.66
		c-3.948-0.536-7.845,1.27-9.983,4.631c-2.138,3.361-2.123,7.659,0.037,11.005l47.813,74.079l-63.347,54.818
		c-2.44,2.11-3.736,5.25-3.497,8.467c0.239,3.216,1.985,6.131,4.709,7.857l35.7,22.644l-45.048,46.622
		c-2.671,2.764-3.561,6.794-2.302,10.427c1.258,3.632,4.451,6.247,8.259,6.766l218.991,29.85c0.459,0.063,0.919,0.094,1.378,0.094
		c2.216,0,4.387-0.723,6.172-2.08c2.153-1.636,3.569-4.061,3.934-6.742L511.906,158.407z M490.317,165.758l-4.044,29.671
		l-167.421-22.821l-21.388-33.137L490.317,165.758z M336.161,215.607c3.843-3.326,4.652-8.973,1.895-13.243l-4.636-7.182
		l150.096,20.46l-3.879,28.454l-152.394-20.772L336.161,215.607z M462.227,371.843l-188.943-25.754l39.756-41.147
		c2.13-2.204,3.156-5.25,2.793-8.294c-0.363-3.044-2.076-5.764-4.665-7.406l-34.681-21.998l30.204-26.136l170.193,23.197
		L462.227,371.843z"/>
	<path style="fill:#4C1D1D;" d="M456.118,280.618c-5.581-0.753-10.72,3.155-11.476,8.737l-0.414,3.057
		c-0.757,5.582,3.155,10.72,8.737,11.476c0.465,0.063,0.926,0.094,1.383,0.094c5.024,0,9.401-3.714,10.093-8.83l0.414-3.057
		C465.613,286.512,461.7,281.374,456.118,280.618z"/>
	<path style="fill:#4C1D1D;" d="M451.831,312.237c-5.586-0.755-10.72,3.155-11.477,8.736l-3.872,28.557
		c-0.757,5.582,3.155,10.72,8.736,11.477c0.465,0.063,0.927,0.094,1.383,0.094c5.024,0,9.4-3.714,10.093-8.829l3.872-28.557
		C461.325,318.132,457.413,312.993,451.831,312.237z"/>
</g>
</svg>